<?xml version="1.0" encoding="UTF-8"?>
<!DOCTYPE svg PUBLIC "-//W3C//DTD SVG 1.1//EN" "http://www.w3.org/Graphics/SVG/1.1/DTD/svg11.dtd">
<!-- Creator: CorelDRAW X7 -->
<svg xmlns="http://www.w3.org/2000/svg" xml:space="preserve" width="57px" height="80px" version="1.1" style="shape-rendering:geometricPrecision; text-rendering:geometricPrecision; image-rendering:optimizeQuality; fill-rule:evenodd; clip-rule:evenodd"
viewBox="0 0 57 81"
 xmlns:xlink="http://www.w3.org/1999/xlink">
 <defs>
  <style type="text/css">
   <![CDATA[
    .fil1 {fill:#039652}
    .fil0 {fill:url(#id0)}
   ]]>
  </style>
  <radialGradient id="id0" gradientUnits="userSpaceOnUse" gradientTransform="matrix(0.859993 -0 -0 0.859998 4 6)" cx="28.5" cy="42.1815" r="0.112046" fx="28.5" fy="42.1815">
   <stop offset="0" style="stop-opacity:1; stop-color:#10A45A"/>
   <stop offset="0.301961" style="stop-opacity:1; stop-color:#0B9955"/>
   <stop offset="1" style="stop-opacity:1; stop-color:#078F50"/>
  </radialGradient>
 </defs>
 <g id="Layer_x0020_1">
  <metadata id="CorelCorpID_0Corel-Layer"/>
  <g id="_744615583776">
   <path class="fil0" d="M32 22c-1,0 -2,1 -2,2l0 0c0,1 1,3 1,5l0 0c1,0 1,1 2,2l0 0c2,2 1,2 0,4l0 0 -2 0c-1,0 -1,0 -1,0l0 0c-1,0 -5,0 -6,0l0 0c0,0 0,1 0,1l0 0c-2,2 -1,2 0,4l0 0c0,1 -1,2 0,4l0 0c0,0 1,0 1,1l0 0 -1 1c0,1 0,2 1,3l0 0c1,1 1,1 1,2l0 0c0,0 1,1 1,1l0 0c1,1 3,2 5,2l0 0c4,0 9,-1 13,-1l0 0c0,0 1,-1 1,-1l0 0c-2,3 -4,4 -7,5l0 0c-1,0 -2,0 -4,0l0 0c-10,0 -18,-8 -18,-18l0 0c0,-2 1,-4 1,-6l0 0c4,2 7,2 9,-2l0 0c-3,-1 -6,0 -8,2l0 0c0,-1 2,-1 5,-1l0 0c-1,1 -3,1 -6,1l0 0c2,-4 5,-7 9,-9l0 0c-4,1 -8,5 -10,9l0 0c0,-2 -3,-4 -7,-7l0 0c3,1 6,3 7,5l0 0c-1,-6 -7,-8 -12,-8 1,6 6,11 12,10l0 0c-1,2 -1,4 -1,7l0 0c0,10 8,18 18,18l0 0c0,0 0,0 0,0l0 0c-3,0 -7,0 -10,-2l0 0c9,7 28,2 28,-15l0 0c0,-4 -2,-8 -4,-11l0 0c2,3 3,6 3,10l0 0c0,3 -1,6 -2,9l0 0 1 -4 -1 -6c-1,0 -2,0 -3,-1l0 0c0,-1 -1,-1 -1,-2l0 0c-3,-5 -5,-5 -8,-7l0 0c0,-1 -1,-1 -2,-2l0 0c0,-1 -1,-2 -1,-3l0 0c0,0 -1,-1 -1,-1l0 0c0,-1 0,-1 0,-1l0 0 -1 0z"/>
   <path class="fil1" d="M17 47c1,0 1,0 2,-1 3,7 9,11 16,11l0 0c2,0 3,0 4,0l0 0c3,-1 5,-2 7,-5l0 0c0,0 -1,1 -1,1l0 0c-4,0 -9,1 -13,1l0 0c-2,0 -4,-1 -5,-2l0 0c0,0 -1,-1 -1,-1l0 0c0,-1 0,-1 -1,-2l0 0c-1,-1 -1,-2 -1,-3l1 -1 0 0c0,0 0,0 0,-1 6,-3 12,-8 20,-7 1,0 1,0 1,1l0 0c1,1 2,1 3,1l1 6 -1 4 0 0c1,-3 2,-6 2,-9l0 0c0,-1 0,-1 0,-2 0,0 0,0 1,0 0,1 0,2 0,3l0 0c0,17 -19,22 -28,15l0 0c3,2 7,2 10,2l0 0c0,0 0,0 0,0l0 0c-8,0 -14,-5 -17,-11z"/>
  </g>
 </g>
</svg>
